<?xml version="1.0"?>
<svg xmlns="http://www.w3.org/2000/svg" xmlns:xlink="http://www.w3.org/1999/xlink" xmlns:svgjs="http://svgjs.com/svgjs" version="1.1" width="512" height="512" x="0" y="0" viewBox="0 0 511.99154 511" style="enable-background:new 0 0 512 512" xml:space="preserve" class=""><g><path xmlns="http://www.w3.org/2000/svg" d="m108.085938 130.304688c-5.183594-12.917969-33.398438-13.757813-63.023438-1.871094-29.621094 11.886718-49.429688 31.996094-44.246094 44.914062 5.183594 12.921875 33.398438 13.757813 63.019532 1.871094 29.625-11.882812 49.433593-31.992188 44.25-44.914062zm0 0" fill="#49a94a" data-original="#ff4c4c" style="" class=""/><path xmlns="http://www.w3.org/2000/svg" d="m108.085938 130.300781c-1.308594-3.257812-4.082032-5.742187-7.96875-7.453125 4.128906 12.9375-15.464844 32.488282-44.503907 44.140625-22.15625 8.890625-43.523437 10.660157-55.054687 5.585938.082031.257812.15625.515625.257812.769531 5.183594 12.921875 33.398438 13.757812 63.019532 1.871094 29.621093-11.886719 49.433593-31.996094 44.25-44.914063zm0 0" fill="#d43f3f" data-original="#d43f3f" style="" class=""/><path xmlns="http://www.w3.org/2000/svg" d="m511.992188 24.308594c0-13.152344-18.425782-23.8125-41.152344-23.8125-22.726563 0-41.152344 10.660156-41.152344 23.8125 0 13.148437 18.425781 23.808594 41.152344 23.808594 22.726562 0 41.152344-10.660157 41.152344-23.808594zm0 0" fill="#49a94a" data-original="#ff4c4c" style="" class=""/><path xmlns="http://www.w3.org/2000/svg" d="m470.839844 36.988281c-19.414063 0-35.679688-7.78125-40.011719-18.246093-.738281 1.785156-1.140625 3.648437-1.140625 5.566406 0 13.148437 18.425781 23.808594 41.152344 23.808594 22.726562 0 41.152344-10.660157 41.152344-23.808594 0-1.917969-.402344-3.78125-1.144532-5.566406-4.332031 10.464843-20.59375 18.246093-40.007812 18.246093zm0 0" fill="#d43f3f" data-original="#d43f3f" style="" class=""/><path xmlns="http://www.w3.org/2000/svg" d="m295.261719 46.675781c-30.164063-7.378906-72.269531 5.339844-94.054688 28.410157-21.78125 23.066406-16.308593 73.761718 15.175781 55.128906 23.964844-14.179688 70.15625-22.011719 94.054688-28.40625 36.996094-9.90625 14.988281-47.75-15.175781-55.132813zm0 0" fill="#49a94a" data-original="#ff4c4c" style="" class=""/><path xmlns="http://www.w3.org/2000/svg" d="m310.992188 53.628906c8.21875 13.117188 6.546874 28.175782-14.835938 33.898438-23.894531 6.398437-70.089844 14.230468-94.050781 28.410156-4.949219 2.925781-9.253907 4.140625-12.910157 4.019531 3.015626 12.210938 12.121094 19.175781 27.1875 10.257813 23.964844-14.179688 70.160157-22.007813 94.054688-28.40625 30.082031-8.054688 21.15625-34.578125.554688-48.179688zm0 0" fill="#d43f3f" data-original="#d43f3f" style="" class=""/><path xmlns="http://www.w3.org/2000/svg" d="m426.214844 254.070312c-18.136719-25.324218 29.882812-144.265624-1.460938-158.917968-30.378906-14.199219-121.929687 83.828125-159.550781 83.828125-37.625 0-83.238281-23-113.621094-8.796875-31.339843 14.648437-29.257812 58.5625-47.390625 83.886718-17.578125 24.546876-66.167968 44.691407-66.167968 75.085938 0 30.398438 48.589843 50.542969 66.167968 75.085938 18.132813 25.324218 16.050782 69.242187 47.390625 83.890624 26.570313 12.421876 64.789063-3.613281 99.125-7.832031 9.507813-.917969 19.175781-.875 28.988281 0 34.335938 4.21875 72.558594 20.253907 99.125 7.832031 31.34375-14.648437 29.257813-58.566406 47.394532-83.890624 17.574218-24.542969 66.164062-44.6875 66.164062-75.085938 0-30.394531-48.589844-50.539062-66.164062-75.085938zm0 0" fill="#49a94a" data-original="#ff4c4c" style="" class=""/><path xmlns="http://www.w3.org/2000/svg" d="m463.753906 287.667969c-7.496094 22.273437-43.027344 38.464843-56.832031 57.742187-15.960937 22.289063-14.128906 60.941406-41.714844 73.835938-23.386719 10.933594-57.027343-3.179688-87.25-6.890625-8.636719-.773438-17.148437-.8125-25.511719 0-30.226562 3.710937-63.867187 17.824219-87.25 6.890625-27.585937-12.894532-25.753906-51.546875-41.714843-73.835938-13.804688-19.277344-49.335938-35.46875-56.835938-57.742187-15.25 12.417969-28.621093 25.542969-28.621093 41.488281 0 30.398438 48.589843 50.542969 66.164062 75.085938 18.136719 25.324218 16.050781 69.242187 47.394531 83.890624 26.566407 12.421876 64.789063-3.613281 99.125-7.832031 9.503907-.917969 19.175781-.875 28.988281 0 34.335938 4.21875 72.554688 20.253907 99.125 7.832031 31.339844-14.648437 29.257813-58.566406 47.390626-83.890624 17.578124-24.542969 66.167968-44.6875 66.167968-75.085938 0-15.945312-13.371094-29.066406-28.625-41.488281zm0 0" fill="#d43f3f" data-original="#d43f3f" style="" class=""/></g></svg>
